<?xml version="1.0" encoding="UTF-8"?>
<!DOCTYPE svg PUBLIC "-//W3C//DTD SVG 1.1//EN" "http://www.w3.org/Graphics/SVG/1.1/DTD/svg11.dtd">
<svg xmlns="http://www.w3.org/2000/svg" version="1.1" width="63px" height="63px" style="shape-rendering:geometricPrecision; text-rendering:geometricPrecision; image-rendering:optimizeQuality; fill-rule:evenodd; clip-rule:evenodd" xmlns:xlink="http://www.w3.org/1999/xlink">
<g><path style="opacity:1" fill="#191c38" d="M 53.5,12.5 C 52.1667,12.5 51.5,13.1667 51.5,14.5C 40.3787,3.12103 28.0454,1.62103 14.5,10C 10.975,12.9011 8.30831,16.4011 6.5,20.5C 5.83333,20.5 5.5,20.8333 5.5,21.5C 4.83333,21.1667 4.16667,20.8333 3.5,20.5C 9.68085,5.23739 21.0142,-0.929281 37.5,2C 44.0507,3.73002 49.384,7.23002 53.5,12.5 Z"/></g>
<g><path style="opacity:0.998" fill="#171b35" d="M 36.5,15.5 C 35.8826,15.3893 35.3826,15.056 35,14.5C 34.5017,17.8168 34.335,21.1501 34.5,24.5C 33.6805,21.6946 33.1805,18.6946 33,15.5C 33.2616,19.7419 31.7616,23.0753 28.5,25.5C 28.5,24.1667 27.8333,23.5 26.5,23.5C 28.7873,20.0381 30.1206,16.2048 30.5,12C 33.8716,10.8785 35.8716,12.0451 36.5,15.5 Z"/></g>
<g><path style="opacity:0.999" fill="#181b36" d="M 53.5,12.5 C 59.584,20.9334 61.084,30.2668 58,40.5C 57.3918,42.0664 56.5585,43.3998 55.5,44.5C 54.8333,43.8333 54.1667,43.1667 53.5,42.5C 57.7885,32.8091 57.1218,23.4757 51.5,14.5C 51.5,13.1667 52.1667,12.5 53.5,12.5 Z"/></g>
<g><path style="opacity:1" fill="#1f244a" d="M 3.5,20.5 C 4.16667,20.8333 4.83333,21.1667 5.5,21.5C 11.7496,23.4589 18.4163,24.1255 25.5,23.5C 25.8333,23.5 26.1667,23.5 26.5,23.5C 27.8333,23.5 28.5,24.1667 28.5,25.5C 27.791,26.404 26.791,26.7373 25.5,26.5C 25.3893,25.8826 25.056,25.3826 24.5,25C 17.5079,24.5004 10.5079,24.3337 3.5,24.5C 3.5,23.1667 3.5,21.8333 3.5,20.5 Z"/></g>
<g><path style="opacity:0.4" fill="#0c0f1e" d="M 6.5,20.5 C 12.6014,22.1489 18.9347,23.1489 25.5,23.5C 18.4163,24.1255 11.7496,23.4589 5.5,21.5C 5.5,20.8333 5.83333,20.5 6.5,20.5 Z"/></g>
<g><path style="opacity:0.027" fill="#030309" d="M 2.5,23.5 C 2.26269,24.791 2.59603,25.791 3.5,26.5C 3.71901,27.675 3.38568,28.675 2.5,29.5C 1.20719,27.3635 1.20719,25.3635 2.5,23.5 Z"/></g>
<g><path style="opacity:0.998" fill="#1a1d38" d="M 36.5,15.5 C 37.4385,17.7564 37.4385,20.0897 36.5,22.5C 40.0419,22.1872 43.3752,22.5206 46.5,23.5C 46.427,25.0269 47.0937,26.0269 48.5,26.5C 47.791,27.404 46.791,27.7373 45.5,27.5C 45.2172,26.7109 44.7172,26.0442 44,25.5C 40.5621,26.9827 37.3955,26.6494 34.5,24.5C 34.335,21.1501 34.5017,17.8168 35,14.5C 35.3826,15.056 35.8826,15.3893 36.5,15.5 Z"/></g>
<g><path style="opacity:0.733" fill="#161c39" d="M 3.5,20.5 C 3.5,21.8333 3.5,23.1667 3.5,24.5C 10.5079,24.3337 17.5079,24.5004 24.5,25C 25.056,25.3826 25.3893,25.8826 25.5,26.5C 18.0377,25.2204 10.7044,25.2204 3.5,26.5C 2.59603,25.791 2.26269,24.791 2.5,23.5C 2.26269,22.209 2.59603,21.209 3.5,20.5 Z"/></g>
<g><path style="opacity:0.447" fill="#101121" d="M 46.5,23.5 C 47.9063,23.9731 48.573,24.9731 48.5,26.5C 47.0937,26.0269 46.427,25.0269 46.5,23.5 Z"/></g>
<g><path style="opacity:0.999" fill="#181b36" d="M 48.5,26.5 C 50.385,28.7954 50.885,31.462 50,34.5C 48.3015,37.921 46.1348,40.921 43.5,43.5C 43.5,42.1667 42.8333,41.5 41.5,41.5C 43.6215,38.0928 45.6215,34.5928 47.5,31C 47.0217,29.6974 46.355,28.5307 45.5,27.5C 46.791,27.7373 47.791,27.404 48.5,26.5 Z"/></g>
<g><path style="opacity:0.435" fill="#0d0e1c" d="M 24.5,40.5 C 17.8333,41.1667 11.1667,41.8333 4.5,42.5C 3.95691,42.44 3.62358,42.1067 3.5,41.5C 10.4684,40.503 17.4684,40.1697 24.5,40.5 Z"/></g>
<g><path style="opacity:0.999" fill="#1b1f40" d="M 41.5,41.5 C 42.8333,41.5 43.5,42.1667 43.5,43.5C 31.7399,43.6001 20.0733,43.9334 8.5,44.5C 8.63101,45.2389 8.46434,45.9056 8,46.5C 7.32924,45.7476 6.4959,45.4142 5.5,45.5C 4.89022,44.609 4.55688,43.609 4.5,42.5C 11.1667,41.8333 17.8333,41.1667 24.5,40.5C 25.1174,40.3893 25.6174,40.056 26,39.5C 30.9874,41.2126 36.1541,41.8793 41.5,41.5 Z"/></g>
<g><path style="opacity:0.998" fill="#171a33" d="M 8.5,44.5 C 11.859,47.5285 15.1924,50.5285 18.5,53.5C 17.5,53.8333 16.8333,54.5 16.5,55.5C 11.5796,53.5811 7.91297,50.2478 5.5,45.5C 6.4959,45.4142 7.32924,45.7476 8,46.5C 8.46434,45.9056 8.63101,45.2389 8.5,44.5 Z"/></g>
<g><path style="opacity:0.998" fill="#171a34" d="M 53.5,42.5 C 54.1667,43.1667 54.8333,43.8333 55.5,44.5C 53.5,49.8333 49.8333,53.5 44.5,55.5C 44.1667,54.5 43.5,53.8333 42.5,53.5C 44.3162,51.8634 46.3162,50.3634 48.5,49C 50.0303,46.648 51.6969,44.4813 53.5,42.5 Z"/></g>
<g><path style="opacity:0.998" fill="#181c37" d="M 18.5,53.5 C 22.4159,54.7509 26.4159,55.7509 30.5,56.5C 34.5841,55.7509 38.5841,54.7509 42.5,53.5C 43.5,53.8333 44.1667,54.5 44.5,55.5C 35.1667,60.8333 25.8333,60.8333 16.5,55.5C 16.8333,54.5 17.5,53.8333 18.5,53.5 Z"/></g>
</svg>
