<?xml version="1.0" encoding="UTF-8"?>
<!DOCTYPE svg PUBLIC "-//W3C//DTD SVG 1.1//EN" "http://www.w3.org/Graphics/SVG/1.1/DTD/svg11.dtd">
<svg xmlns="http://www.w3.org/2000/svg" version="1.1" width="63px" height="63px" style="shape-rendering:geometricPrecision; text-rendering:geometricPrecision; image-rendering:optimizeQuality; fill-rule:evenodd; clip-rule:evenodd" xmlns:xlink="http://www.w3.org/1999/xlink">
<g><path style="opacity:1" fill="#181b37" d="M 56.5,17.5 C 55.3478,16.375 54.3478,16.375 53.5,17.5C 51.8634,15.6838 50.3634,13.6838 49,11.5C 48.3292,10.7476 47.4959,10.4142 46.5,10.5C 36.9185,2.23509 26.5851,1.40176 15.5,8C 4.14037,17.4908 1.47371,28.9908 7.5,42.5C 7.76781,44.099 7.43448,45.4324 6.5,46.5C 0.0148354,35.3472 -0.151831,24.0139 6,12.5C 19.5231,-1.72015 34.3565,-3.22015 50.5,8C 53.1461,10.8016 55.1461,13.9683 56.5,17.5 Z M 44.5,13.5 C 44.5,13.8333 44.5,14.1667 44.5,14.5C 39.3054,14.1795 34.3054,14.5128 29.5,15.5C 24.8333,15.5 20.1667,15.5 15.5,15.5C 15.9528,14.5416 16.6195,13.7083 17.5,13C 26.5476,12.2225 35.5476,12.3892 44.5,13.5 Z"/></g>
<g><path style="opacity:0.999" fill="#191d3b" d="M 46.5,10.5 C 46.9867,11.4734 47.4867,12.4734 48,13.5C 48.3333,24.5 48.6667,35.5 49,46.5C 55.1253,39.6406 57.1253,31.6406 55,22.5C 54.3923,20.8455 53.8923,19.1789 53.5,17.5C 54.3478,16.375 55.3478,16.375 56.5,17.5C 61.7349,30.4881 59.2349,41.8214 49,51.5C 49.1767,55.3176 47.6767,58.1509 44.5,60C 34.6578,60.8246 24.9911,60.658 15.5,59.5C 15.8333,58.5 16.5,57.8333 17.5,57.5C 25.84,57.6664 34.1733,57.4997 42.5,57C 43.9423,56.6232 44.9423,55.7899 45.5,54.5C 46.6602,41.6732 46.8269,28.6732 46,15.5C 45.7216,14.5842 45.2216,13.9175 44.5,13.5C 35.5476,12.3892 26.5476,12.2225 17.5,13C 16.6195,13.7083 15.9528,14.5416 15.5,15.5C 14.5045,28.3226 14.1712,41.3226 14.5,54.5C 14.1667,55.5 13.5,56.1667 12.5,56.5C 11.3392,42.3393 11.1725,28.0059 12,13.5C 13.1667,12.3333 14.3333,11.1667 15.5,10C 25.88,9.21482 36.2133,9.38149 46.5,10.5 Z M 44.5,13.5 C 44.5,13.8333 44.5,14.1667 44.5,14.5C 39.3054,14.1795 34.3054,14.5128 29.5,15.5C 24.8333,15.5 20.1667,15.5 15.5,15.5C 15.9528,14.5416 16.6195,13.7083 17.5,13C 26.5476,12.2225 35.5476,12.3892 44.5,13.5 Z M 42.5,31.5 C 38.8333,31.5 35.1667,31.5 31.5,31.5C 31.5,26.5 31.5,21.5 31.5,16.5C 35.1667,16.5 38.8333,16.5 42.5,16.5C 42.5,21.5 42.5,26.5 42.5,31.5 Z"/></g>
<g><path style="opacity:0.271" fill="#090a15" d="M 15.5,15.5 C 20.1667,15.5 24.8333,15.5 29.5,15.5C 25.1667,16.1667 20.8333,16.8333 16.5,17.5C 15.6618,17.1583 15.3284,16.4916 15.5,15.5 Z"/></g>
<g><path style="opacity:0.999" fill="#20264f" d="M 44.5,15.5 C 44.5,21.1667 44.5,26.8333 44.5,32.5C 39.393,32.8345 35.0597,32.5012 31.5,31.5C 35.1667,31.5 38.8333,31.5 42.5,31.5C 43.1667,26.1667 43.8333,20.8333 44.5,15.5 Z"/></g>
<g><path style="opacity:0.361" fill="#0a0b18" d="M 44.5,13.5 C 45.2216,13.9175 45.7216,14.5842 46,15.5C 46.8269,28.6732 46.6602,41.6732 45.5,54.5C 45.5,53.8333 45.5,53.1667 45.5,52.5C 45.5,47.5 45.5,42.5 45.5,37.5C 45.5,36.5 45.5,35.5 45.5,34.5C 45.6716,33.5084 45.3382,32.8417 44.5,32.5C 44.5,26.8333 44.5,21.1667 44.5,15.5C 44.5,15.1667 44.5,14.8333 44.5,14.5C 44.5,14.1667 44.5,13.8333 44.5,13.5 Z"/></g>
<g><path style="opacity:0.502" fill="#14182f" d="M 44.5,14.5 C 44.5,14.8333 44.5,15.1667 44.5,15.5C 43.8333,20.8333 43.1667,26.1667 42.5,31.5C 42.5,26.5 42.5,21.5 42.5,16.5C 38.8333,16.5 35.1667,16.5 31.5,16.5C 31.5,21.5 31.5,26.5 31.5,31.5C 35.0597,32.5012 39.393,32.8345 44.5,32.5C 39.6946,33.4872 34.6946,33.8205 29.5,33.5C 29.5,32.5 29.5,31.5 29.5,30.5C 25.1667,30.5 20.8333,30.5 16.5,30.5C 20.3864,28.725 24.7197,27.8916 29.5,28C 12.2047,27.4956 12.2047,26.6622 29.5,25.5C 25.3997,25.7153 21.0664,25.382 16.5,24.5C 33.7953,23.3378 33.7953,22.5044 16.5,22C 20.8711,21.8275 25.2044,21.3275 29.5,20.5C 27.442,20.0641 25.1087,20.0641 22.5,20.5C 20.0478,20.4609 18.0478,19.7943 16.5,18.5C 33.8333,18.1667 33.8333,17.8333 16.5,17.5C 20.8333,16.8333 25.1667,16.1667 29.5,15.5C 34.3054,14.5128 39.3054,14.1795 44.5,14.5 Z M 42.5,31.5 C 38.8333,31.5 35.1667,31.5 31.5,31.5C 31.5,26.5 31.5,21.5 31.5,16.5C 35.1667,16.5 38.8333,16.5 42.5,16.5C 42.5,21.5 42.5,26.5 42.5,31.5 Z"/></g>
<g><path style="opacity:0.011" fill="#03040b" d="M 16.5,18.5 C 18.0478,19.7943 20.0478,20.4609 22.5,20.5C 25.1087,20.0641 27.442,20.0641 29.5,20.5C 25.2044,21.3275 20.8711,21.8275 16.5,22C 33.7953,22.5044 33.7953,23.3378 16.5,24.5C 21.0664,25.382 25.3997,25.7153 29.5,25.5C 12.2047,26.6622 12.2047,27.4956 29.5,28C 24.7197,27.8916 20.3864,28.725 16.5,30.5C 15.1667,26.5 15.1667,22.5 16.5,18.5 Z"/></g>
<g><path style="opacity:0.037" fill="#121321" d="M 45.5,34.5 C 45.5,35.5 45.5,36.5 45.5,37.5C 45.1667,37.5 44.8333,37.5 44.5,37.5C 7.16667,38.1667 7.16667,38.8333 44.5,39.5C 35.2245,41.4733 25.5578,42.14 15.5,41.5C 15.5,39.1667 15.5,36.8333 15.5,34.5C 25.5,34.5 35.5,34.5 45.5,34.5 Z"/></g>
<g><path style="opacity:0.541" fill="#13172f" d="M 44.5,37.5 C 44.5,38.1667 44.5,38.8333 44.5,39.5C 7.16667,38.8333 7.16667,38.1667 44.5,37.5 Z"/></g>
<g><path style="opacity:0.459" fill="#0c0d1c" d="M 7.5,42.5 C 8.62247,44.2884 8.78914,46.2884 8,48.5C 7.28281,47.9558 6.78281,47.2891 6.5,46.5C 7.43448,45.4324 7.76781,44.099 7.5,42.5 Z"/></g>
<g><path style="opacity:0.056" fill="#0f0f1a" d="M 44.5,37.5 C 44.8333,37.5 45.1667,37.5 45.5,37.5C 45.5,42.5 45.5,47.5 45.5,52.5C 35.5,52.5 25.5,52.5 15.5,52.5C 15.5,48.8333 15.5,45.1667 15.5,41.5C 25.5578,42.14 35.2245,41.4733 44.5,39.5C 44.5,38.8333 44.5,38.1667 44.5,37.5 Z"/></g>
<g><path style="opacity:0.561" fill="#131730" d="M 16.5,42.5 C 25.8571,42.1684 35.1904,42.5017 44.5,43.5C 39.8333,43.8333 35.1667,44.1667 30.5,44.5C 25.4492,44.4933 20.7825,43.8266 16.5,42.5 Z"/></g>
<g><path style="opacity:0.573" fill="#141731" d="M 16.5,47.5 C 25.8571,47.1684 35.1904,47.5017 44.5,48.5C 39.8333,48.8333 35.1667,49.1667 30.5,49.5C 25.4492,49.4933 20.7825,48.8266 16.5,47.5 Z"/></g>
<g><path style="opacity:1" fill="#161931" d="M 14.5,54.5 C 15.5,55.5 16.5,56.5 17.5,57.5C 16.5,57.8333 15.8333,58.5 15.5,59.5C 13.5,59.5 12.5,58.5 12.5,56.5C 13.5,56.1667 14.1667,55.5 14.5,54.5 Z"/></g>
</svg>
