<?xml version="1.0" encoding="UTF-8"?>
<!DOCTYPE svg PUBLIC "-//W3C//DTD SVG 1.1//EN" "http://www.w3.org/Graphics/SVG/1.1/DTD/svg11.dtd">
<svg xmlns="http://www.w3.org/2000/svg" version="1.1" width="63px" height="63px" style="shape-rendering:geometricPrecision; text-rendering:geometricPrecision; image-rendering:optimizeQuality; fill-rule:evenodd; clip-rule:evenodd" xmlns:xlink="http://www.w3.org/1999/xlink">
<g><path style="opacity:0.667" fill="#13152a" d="M 37.5,1.5 C 31.7969,1.37477 26.1302,1.7081 20.5,2.5C 23.5256,0.981434 26.8589,0.314768 30.5,0.5C 33.0254,0.503366 35.3587,0.8367 37.5,1.5 Z"/></g>
<g><path style="opacity:1" fill="#1a1e3d" d="M 37.5,1.5 C 41.2592,1.8621 44.5925,3.19543 47.5,5.5C 47.5,6.83333 46.8333,7.5 45.5,7.5C 39.2467,4.2716 32.5801,2.93826 25.5,3.5C 23.5853,3.78448 21.9187,3.45115 20.5,2.5C 26.1302,1.7081 31.7969,1.37477 37.5,1.5 Z"/></g>
<g><path style="opacity:0.988" fill="#181b35" d="M 55.5,26.5 C 55.5,27.1667 55.5,27.8333 55.5,28.5C 55.44,29.0431 55.1067,29.3764 54.5,29.5C 46.5,22.8333 38.5,16.1667 30.5,9.5C 24.8142,14.1899 19.1475,18.8565 13.5,23.5C 12.791,22.596 11.791,22.2627 10.5,22.5C 16.5612,16.1042 23.2279,10.4376 30.5,5.5C 39.144,12.1451 47.4773,19.1451 55.5,26.5 Z"/></g>
<g><path style="opacity:1" fill="#181b36" d="M 47.5,5.5 C 52.3583,8.68789 55.6917,13.0212 57.5,18.5C 56.5489,19.9187 56.2155,21.5853 56.5,23.5C 55.3009,20.4375 53.8009,17.4375 52,14.5C 49.6278,12.2968 47.4611,9.96348 45.5,7.5C 46.8333,7.5 47.5,6.83333 47.5,5.5 Z"/></g>
<g><path style="opacity:0.999" fill="#181c38" d="M 20.5,2.5 C 21.9187,3.45115 23.5853,3.78448 25.5,3.5C 14.0263,6.97778 7.02634,14.6445 4.5,26.5C 3.16667,28.5 3.16667,30.5 4.5,32.5C 4.9652,36.0615 6.13187,39.3949 8,42.5C 8.49902,38.1794 8.66568,33.8461 8.5,29.5C 8.5,29.1667 8.5,28.8333 8.5,28.5C 9.16412,30.9779 9.49745,33.6445 9.5,36.5C 9.23686,40.2969 8.57019,43.9635 7.5,47.5C 4.91925,44.6797 3.08592,41.3464 2,37.5C -0.719317,23.3069 3.78068,12.1402 15.5,4C 17.0249,2.99136 18.6916,2.49136 20.5,2.5 Z M 8.5,29.5 C 8.66568,33.8461 8.49902,38.1794 8,42.5C 6.13187,39.3949 4.9652,36.0615 4.5,32.5C 4.34332,31.1266 4.50999,29.7932 5,28.5C 6.01127,29.3366 7.17793,29.67 8.5,29.5 Z"/></g>
<g><path style="opacity:0.998" fill="#191d3a" d="M 57.5,18.5 C 61.289,25.9556 61.4557,33.6223 58,41.5C 57.3028,43.5844 56.1361,45.2511 54.5,46.5C 53.791,45.596 52.791,45.2627 51.5,45.5C 51.5,41.5 51.5,37.5 51.5,33.5C 52.3213,36.6414 52.8213,39.9748 53,43.5C 54.8681,40.3949 56.0348,37.0615 56.5,33.5C 57.8333,30.8333 57.8333,28.1667 56.5,25.5C 56.5,24.8333 56.5,24.1667 56.5,23.5C 56.2155,21.5853 56.5489,19.9187 57.5,18.5 Z"/></g>
<g><path style="opacity:1" fill="#1c2144" d="M 10.5,22.5 C 11.791,22.2627 12.791,22.596 13.5,23.5C 12.5,23.5 11.5,23.5 10.5,23.5C 10.5,31.5 10.5,39.5 10.5,47.5C 14.8333,47.5 19.1667,47.5 23.5,47.5C 23.5,42.5 23.5,37.5 23.5,32.5C 28.3054,31.5128 33.3054,31.1795 38.5,31.5C 38.5,36.5 38.5,41.5 38.5,46.5C 42.2984,47.4834 46.2984,47.8168 50.5,47.5C 50.5,42.8333 50.5,38.1667 50.5,33.5C 50.8333,33.5 51.1667,33.5 51.5,33.5C 51.5,37.5 51.5,41.5 51.5,45.5C 52.791,45.2627 53.791,45.596 54.5,46.5C 53.5806,49.0892 51.914,51.0892 49.5,52.5C 49.5,51.1667 48.8333,50.5 47.5,50.5C 44.0381,49.5184 40.3714,49.185 36.5,49.5C 36.5,44.5 36.5,39.5 36.5,34.5C 32.8333,34.5 29.1667,34.5 25.5,34.5C 25.5,39.5 25.5,44.5 25.5,49.5C 21.8183,49.3347 18.1516,49.5014 14.5,50C 15.3805,50.7083 16.0472,51.5416 16.5,52.5C 15.391,52.5569 14.391,52.8902 13.5,53.5C 12.8333,53.5 12.5,53.1667 12.5,52.5C 11.7377,50.7376 10.4044,49.7376 8.5,49.5C 7.66175,49.1583 7.32842,48.4916 7.5,47.5C 8.57019,43.9635 9.23686,40.2969 9.5,36.5C 9.49745,33.6445 9.16412,30.9779 8.5,28.5C 6.20432,28.1959 5.87099,27.1959 7.5,25.5C 8.16667,24.1667 9.16667,23.1667 10.5,22.5 Z"/></g>
<g><path style="opacity:0.386" fill="#101223" d="M 7.5,25.5 C 5.87099,27.1959 6.20432,28.1959 8.5,28.5C 8.5,28.8333 8.5,29.1667 8.5,29.5C 7.17793,29.67 6.01127,29.3366 5,28.5C 4.50999,29.7932 4.34332,31.1266 4.5,32.5C 3.16667,30.5 3.16667,28.5 4.5,26.5C 5.39105,25.8902 6.39105,25.5569 7.5,25.5 Z"/></g>
<g><path style="opacity:0.11" fill="#04050b" d="M 56.5,25.5 C 57.8333,28.1667 57.8333,30.8333 56.5,33.5C 56.7845,31.5853 56.4511,29.9187 55.5,28.5C 55.5,27.8333 55.5,27.1667 55.5,26.5C 56.1667,26.5 56.5,26.1667 56.5,25.5 Z"/></g>
<g><path style="opacity:0.282" fill="#090b16" d="M 13.5,23.5 C 13.2172,24.2891 12.7172,24.9558 12,25.5C 11.5004,32.4921 11.3337,39.4921 11.5,46.5C 15.1667,46.5 18.8333,46.5 22.5,46.5C 22.1805,41.6367 22.5139,36.97 23.5,32.5C 23.5,37.5 23.5,42.5 23.5,47.5C 19.1667,47.5 14.8333,47.5 10.5,47.5C 10.5,39.5 10.5,31.5 10.5,23.5C 11.5,23.5 12.5,23.5 13.5,23.5 Z"/></g>
<g><path style="opacity:0.329" fill="#0a0b17" d="M 50.5,33.5 C 50.5,38.1667 50.5,42.8333 50.5,47.5C 46.2984,47.8168 42.2984,47.4834 38.5,46.5C 42.1667,46.5 45.8333,46.5 49.5,46.5C 49.1818,41.9677 49.5151,37.6344 50.5,33.5 Z"/></g>
<g><path style="opacity:0.69" fill="#111020" d="M 8.5,49.5 C 10.4044,49.7376 11.7377,50.7376 12.5,52.5C 10.5956,52.2624 9.26231,51.2624 8.5,49.5 Z"/></g>
<g><path style="opacity:0.997" fill="#181b36" d="M 47.5,50.5 C 48.8333,50.5 49.5,51.1667 49.5,52.5C 37.6993,61.4064 25.6993,61.7397 13.5,53.5C 14.391,52.8902 15.391,52.5569 16.5,52.5C 27.1491,57.675 37.4825,57.0083 47.5,50.5 Z"/></g>
</svg>
