<?xml version="1.0" standalone="no"?>
<!DOCTYPE svg PUBLIC "-//W3C//DTD SVG 20010904//EN"
 "http://www.w3.org/TR/2001/REC-SVG-20010904/DTD/svg10.dtd">
<svg version="1.0" xmlns="http://www.w3.org/2000/svg"
 width="63.000000pt" height="63.000000pt" viewBox="0 0 63.000000 63.000000"
 preserveAspectRatio="xMidYMid meet">

<g transform="translate(0.000000,63.000000) scale(0.100000,-0.100000)"
fill="#000000" stroke="none">
<path d="M217 596 c-92 -33 -164 -109 -188 -201 -26 -96 9 -214 85 -283 29
-26 40 -43 38 -59 -4 -26 11 -29 52 -13 21 8 26 16 26 44 0 18 3 47 6 64 8 40
43 47 129 22 38 -11 71 -17 76 -14 4 2 2 24 -5 47 -12 41 -12 45 11 71 12 15
23 38 23 52 0 30 -41 74 -69 74 -15 0 -23 12 -36 55 -8 30 -19 55 -23 55 -4 0
-32 -24 -61 -54 -45 -46 -64 -57 -117 -72 -51 -13 -65 -22 -73 -43 -6 -14 -16
-34 -23 -43 -9 -13 -10 -27 -1 -58 6 -23 7 -38 2 -33 -5 5 -15 34 -21 65 -24
113 29 226 133 283 45 25 65 30 124 30 58 0 79 -5 122 -29 86 -48 89 -55 48
-109 -19 -25 -31 -48 -26 -52 10 -5 111 119 111 136 0 15 -20 10 -26 -6 -5
-11 -14 -8 -43 16 -78 62 -190 85 -274 55z m134 -173 c9 -30 19 -47 28 -45 7
1 24 -4 37 -13 31 -20 33 -68 4 -88 -17 -12 -20 -21 -14 -55 l6 -41 -58 15
c-60 16 -123 12 -136 -9 -4 -7 -8 -31 -8 -54 0 -48 -8 -73 -22 -73 -7 0 -9 21
-5 58 6 57 6 57 -26 70 -54 22 -61 28 -69 57 -5 20 -3 34 6 45 8 8 16 24 18
35 2 14 21 25 72 40 57 17 75 28 104 63 19 23 38 42 42 42 3 0 13 -21 21 -47z
m-208 -259 c12 -7 18 -19 15 -33 l-3 -23 -28 22 c-15 12 -32 30 -37 40 -8 16
-7 17 13 12 12 -4 30 -12 40 -18z"/>
<path d="M615 374 c-5 -1 -36 -5 -67 -9 -32 -4 -58 -11 -58 -17 0 -13 120 -2
134 13 11 10 6 18 -9 13z"/>
<path d="M466 281 c-4 -5 12 -22 34 -38 22 -15 40 -31 40 -34 0 -15 -62 -89
-89 -105 -33 -20 -40 -34 -16 -34 16 0 96 74 113 105 10 18 14 18 32 7 35 -21
38 -3 5 24 -70 56 -114 84 -119 75z"/>
</g>
</svg>
