<?xml version="1.0" encoding="UTF-8"?>
<!DOCTYPE svg PUBLIC "-//W3C//DTD SVG 1.1//EN" "http://www.w3.org/Graphics/SVG/1.1/DTD/svg11.dtd">
<svg xmlns="http://www.w3.org/2000/svg" version="1.1" width="63px" height="63px" style="shape-rendering:geometricPrecision; text-rendering:geometricPrecision; image-rendering:optimizeQuality; fill-rule:evenodd; clip-rule:evenodd" xmlns:xlink="http://www.w3.org/1999/xlink">
<g><path style="opacity:0.998" fill="#1b1f3f" d="M 40.5,2.5 C 38.3926,3.46822 36.0593,3.80155 33.5,3.5C 31.8333,3.5 30.1667,3.5 28.5,3.5C 26.8008,3.66018 25.1341,3.49351 23.5,3C 24.7375,2.76791 25.7375,2.26791 26.5,1.5C 31.265,0.293127 35.9317,0.626461 40.5,2.5 Z"/></g>
<g><path style="opacity:0.973" fill="#181b36" d="M 40.5,2.5 C 47.6477,4.65206 52.981,8.9854 56.5,15.5C 55.3478,14.375 54.3478,14.375 53.5,15.5C 48.3701,8.93519 41.7034,4.93519 33.5,3.5C 36.0593,3.80155 38.3926,3.46822 40.5,2.5 Z"/></g>
<g><path style="opacity:0.999" fill="#171a34" d="M 26.5,1.5 C 25.7375,2.26791 24.7375,2.76791 23.5,3C 25.1341,3.49351 26.8008,3.66018 28.5,3.5C 19.6831,5.41064 12.6831,10.0773 7.5,17.5C 7.59121,15.3023 6.92454,14.9689 5.5,16.5C 9.79957,7.83947 16.7996,2.83947 26.5,1.5 Z"/></g>
<g><path style="opacity:0.999" fill="#191c38" d="M 25.5,15.5 C 38.8827,14.2879 42.216,19.6212 35.5,31.5C 26.578,34.2011 22.2447,30.8678 22.5,21.5C 22.9837,19.1992 23.9837,17.1992 25.5,15.5 Z M 28.5,18.5 C 35.7833,18.5636 37.45,21.7302 33.5,28C 28.8628,29.3624 26.5295,27.6957 26.5,23C 26.7586,21.2134 27.4253,19.7134 28.5,18.5 Z"/></g>
<g><path style="opacity:1" fill="#191c39" d="M 7.5,17.5 C 7.5,18.1667 7.5,18.8333 7.5,19.5C 7.05575,21.1132 6.05575,22.2798 4.5,23C 5.41321,24.4139 5.41321,25.9139 4.5,27.5C 4.33788,29.5273 4.50454,31.5273 5,33.5C 5.70956,34.9733 6.87623,35.6399 8.5,35.5C 11.6248,36.4794 14.9581,36.8128 18.5,36.5C 18.5,37.1667 18.5,37.8333 18.5,38.5C 14.4454,38.1758 10.4454,38.5091 6.5,39.5C 7.7878,41.7388 8.7878,44.0721 9.5,46.5C 9.5,47.8333 8.83333,48.5 7.5,48.5C 0.412768,38.1407 -0.253898,27.4741 5.5,16.5C 6.92454,14.9689 7.59121,15.3023 7.5,17.5 Z"/></g>
<g><path style="opacity:0.998" fill="#191c39" d="M 18.5,36.5 C 14.9581,36.8128 11.6248,36.4794 8.5,35.5C 6.31873,33.2359 4.9854,30.5692 4.5,27.5C 5.41321,25.9139 5.41321,24.4139 4.5,23C 6.05575,22.2798 7.05575,21.1132 7.5,19.5C 17.7731,16.3746 21.9397,20.0413 20,30.5C 19.7265,32.3289 18.8932,33.8289 17.5,35C 18.056,35.3826 18.3893,35.8826 18.5,36.5 Z M 9.5,22.5 C 18.0001,22.1569 19.6667,25.3235 14.5,32C 10.294,32.8349 8.29402,31.0016 8.5,26.5C 8.62328,25.0755 8.95661,23.7421 9.5,22.5 Z"/></g>
<g><path style="opacity:0.999" fill="#191d39" d="M 54.5,19.5 C 54.5,19.8333 54.5,20.1667 54.5,20.5C 55.4137,23.728 55.7471,27.0613 55.5,30.5C 55.6085,32.5138 54.9418,34.1805 53.5,35.5C 50.5,35.5 47.5,35.5 44.5,35.5C 41.9963,32.5925 40.6629,29.0925 40.5,25C 40.9912,20.2451 43.6579,18.0784 48.5,18.5C 50.5477,18.6718 52.5477,19.0051 54.5,19.5 Z M 45.5,22.5 C 54.0001,22.1569 55.6667,25.3235 50.5,32C 46.294,32.8349 44.294,31.0016 44.5,26.5C 44.6233,25.0755 44.9566,23.7421 45.5,22.5 Z"/></g>
<g><path style="opacity:1" fill="#191d3b" d="M 56.5,15.5 C 57.6737,16.5137 58.3404,17.847 58.5,19.5C 58.4095,22.1522 59.0762,24.4855 60.5,26.5C 61.6183,34.2913 59.9516,41.2913 55.5,47.5C 55.5674,46.0413 55.2341,44.7079 54.5,43.5C 55.4132,41.9139 55.4132,40.4139 54.5,39C 50.8484,38.5014 47.1817,38.3347 43.5,38.5C 43.6716,37.5084 43.3382,36.8417 42.5,36.5C 42.8417,35.6618 43.5084,35.3284 44.5,35.5C 47.5,35.5 50.5,35.5 53.5,35.5C 54.8221,35.33 55.9887,35.6634 57,36.5C 57.4988,32.5138 57.6655,28.5138 57.5,24.5C 57.2041,22.597 56.5375,20.9303 55.5,19.5C 55.1667,19.5 54.8333,19.5 54.5,19.5C 54.1667,18.1667 53.8333,16.8333 53.5,15.5C 54.3478,14.375 55.3478,14.375 56.5,15.5 Z"/></g>
<g><path style="opacity:0.573" fill="#111426" d="M 58.5,19.5 C 59.9238,21.5145 60.5905,23.8478 60.5,26.5C 59.0762,24.4855 58.4095,22.1522 58.5,19.5 Z"/></g>
<g><path style="opacity:0.224" fill="#0a0b16" d="M 55.5,19.5 C 56.5375,20.9303 57.2041,22.597 57.5,24.5C 56.8333,26.5 56.1667,28.5 55.5,30.5C 55.7471,27.0613 55.4137,23.728 54.5,20.5C 55.1667,20.5 55.5,20.1667 55.5,19.5 Z"/></g>
<g><path style="opacity:1" fill="#191c38" d="M 42.5,36.5 C 42.3284,37.4916 42.6618,38.1583 43.5,38.5C 44.5065,42.8579 45.6731,47.1912 47,51.5C 49.733,48.9375 52.233,46.2709 54.5,43.5C 55.2341,44.7079 55.5674,46.0413 55.5,47.5C 49.3644,55.7371 41.031,60.0704 30.5,60.5C 30.33,59.1779 30.6634,58.0113 31.5,57C 34.3715,56.6852 37.2048,56.1852 40,55.5C 41.6209,55.2753 42.7875,54.442 43.5,53C 42.3763,47.457 40.3763,42.2904 37.5,37.5C 32.7667,36.0672 28.1,36.2338 23.5,38C 21.26,44.2223 18.9267,50.389 16.5,56.5C 12.8595,54.5246 9.85954,51.858 7.5,48.5C 8.83333,48.5 9.5,47.8333 9.5,46.5C 11.1477,47.8098 12.8144,49.1431 14.5,50.5C 16.4348,46.6957 17.7681,42.6957 18.5,38.5C 19.6464,36.525 21.313,35.025 23.5,34C 28.5,33.3333 33.5,33.3333 38.5,34C 39.9839,34.6622 41.3172,35.4955 42.5,36.5 Z"/></g>
</svg>
