<?xml version="1.0" encoding="UTF-8"?>
<!DOCTYPE svg PUBLIC "-//W3C//DTD SVG 1.1//EN" "http://www.w3.org/Graphics/SVG/1.1/DTD/svg11.dtd">
<svg xmlns="http://www.w3.org/2000/svg" version="1.1" width="63px" height="63px" style="shape-rendering:geometricPrecision; text-rendering:geometricPrecision; image-rendering:optimizeQuality; fill-rule:evenodd; clip-rule:evenodd" xmlns:xlink="http://www.w3.org/1999/xlink">
<g><path style="opacity:0.998" fill="#181b36" d="M 28.5,-0.5 C 29.8333,-0.5 31.1667,-0.5 32.5,-0.5C 46.5719,1.56949 55.2385,9.56949 58.5,23.5C 57.8423,22.6016 57.1757,21.6016 56.5,20.5C 55.8933,20.6236 55.56,20.9569 55.5,21.5C 52.0269,12.6963 45.6935,7.02961 36.5,4.5C 32.5,3.16667 28.5,3.16667 24.5,4.5C 22.4357,4.68701 20.4357,5.18701 18.5,6C 15.0003,8.66863 11.667,11.502 8.5,14.5C 7.65225,13.375 6.65225,13.375 5.5,14.5C 7.5921,9.2395 11.2588,5.40616 16.5,3C 20.5431,1.50858 24.5431,0.341911 28.5,-0.5 Z"/></g>
<g><path style="opacity:0.998" fill="#181c38" d="M 24.5,4.5 C 28.5,4.5 32.5,4.5 36.5,4.5C 37.1667,5.16667 37.8333,5.83333 38.5,6.5C 38.7148,8.17876 38.0481,9.17876 36.5,9.5C 24.3083,4.8926 20.475,8.8926 25,21.5C 27.8263,23.3398 30.9929,24.0065 34.5,23.5C 35.8333,23.5 36.5,24.1667 36.5,25.5C 24.6931,29.2191 19.0265,24.7191 19.5,12C 19.8438,8.51071 21.5104,6.01071 24.5,4.5 Z"/></g>
<g><path style="opacity:0.999" fill="#181b35" d="M 38.5,6.5 C 39.2216,6.91753 39.7216,7.5842 40,8.5C 40.6612,13.5576 40.3279,18.5576 39,23.5C 38.2917,24.3805 37.4584,25.0472 36.5,25.5C 36.5,24.1667 35.8333,23.5 34.5,23.5C 36.9035,19.0791 37.5702,14.4124 36.5,9.5C 38.0481,9.17876 38.7148,8.17876 38.5,6.5 Z"/></g>
<g><path style="opacity:0.998" fill="#181c37" d="M 8.5,14.5 C 3.01302,24.2912 3.17968,33.9579 9,43.5C 10.4869,39.8835 11.8202,36.2169 13,32.5C 14.129,30.8588 15.629,29.8588 17.5,29.5C 16.7659,30.7079 16.4326,32.0413 16.5,33.5C 14.4849,39.2291 12.3182,44.8958 10,50.5C 2.2782,42.3217 -0.388463,32.655 2,21.5C 2.67014,18.8261 3.83681,16.4927 5.5,14.5C 6.65225,13.375 7.65225,13.375 8.5,14.5 Z"/></g>
<g><path style="opacity:0.997" fill="#181c38" d="M 58.5,23.5 C 60.0562,29.7071 59.3895,35.7071 56.5,41.5C 55.5,41.1667 54.8333,40.5 54.5,39.5C 55.1628,36.1794 55.8295,32.8461 56.5,29.5C 55.9049,26.8599 55.5715,24.1933 55.5,21.5C 55.56,20.9569 55.8933,20.6236 56.5,20.5C 57.1757,21.6016 57.8423,22.6016 58.5,23.5 Z"/></g>
<g><path style="opacity:0.999" fill="#181a33" d="M 48.5,36.5 C 47.5,36.8333 46.8333,37.5 46.5,38.5C 45.6554,37.3285 44.9887,35.9952 44.5,34.5C 44.5,32.5 43.5,31.5 41.5,31.5C 34.1591,31.3337 26.8258,31.5003 19.5,32C 18.4734,32.5133 17.4734,33.0133 16.5,33.5C 16.4326,32.0413 16.7659,30.7079 17.5,29.5C 18.6085,28.71 19.9419,28.21 21.5,28C 27.5,27.3333 33.5,27.3333 39.5,28C 44.6436,28.6453 47.6436,31.4786 48.5,36.5 Z"/></g>
<g><path style="opacity:0.753" fill="#111120" d="M 41.5,31.5 C 43.5,31.5 44.5,32.5 44.5,34.5C 43.1667,33.8333 42.1667,32.8333 41.5,31.5 Z"/></g>
<g><path style="opacity:0.998" fill="#181c37" d="M 48.5,36.5 C 49.5578,38.8084 50.7245,41.1417 52,43.5C 52.6082,41.9336 53.4415,40.6002 54.5,39.5C 54.8333,40.5 55.5,41.1667 56.5,41.5C 50.9547,52.4496 41.9547,58.1163 29.5,58.5C 29.5,57.5 29.5,56.5 29.5,55.5C 34.8151,55.0698 39.8151,53.5698 44.5,51C 46.2273,49.6106 47.5606,47.9439 48.5,46C 47.5212,43.5667 46.8545,41.0667 46.5,38.5C 46.8333,37.5 47.5,36.8333 48.5,36.5 Z"/></g>
</svg>
