<svg id="Capa_1" data-name="Capa 1" xmlns="http://www.w3.org/2000/svg" viewBox="0 0 200 70"><defs><style>.cls-1{fill:#212750;}</style></defs><title>pictogramas para cesar lopez</title><path class="cls-1" d="M62.26,17.51A28.61,28.61,0,0,0,14.58,29.73c-.14.46-.26.93-.36,1.38a1.19,1.19,0,0,0-.24.62v.42l-.08.35-.07.26h0l0,.16.15-.16h0l0,4.36.86-4.36H35.42l.17.19c.57.63,1.11,1.22,1.93.9a9.58,9.58,0,0,0,6.06-8.33V21.78a.2.2,0,0,1,.06-.14l.15-.13a.18.18,0,0,1,.25,0,4.88,4.88,0,0,1,1.27,6l0,.05a4.58,4.58,0,0,0,.32,3.66,4.3,4.3,0,0,0,3.3,1.88l.38,0L56.52,33c.32.48,1,1.6,2.58,4.18a2.84,2.84,0,0,1,0,2.82l-4.9,8a2.71,2.71,0,0,1-2.14,1.3c-.42,0-.88.07-1.41.12a26.88,26.88,0,0,1-5.39.17,37.27,37.27,0,0,1-5.84-1.22l-1.41-.37a2.46,2.46,0,0,0-2.46.78.15.15,0,0,1-.14.06l-19.84-.41.28.7c.16.41.46,1.26.47,1.27l0,.05a28.81,28.81,0,0,0,5.43,7.56A28.59,28.59,0,0,0,62.26,17.51ZM61.08,41.13l0,0A5.12,5.12,0,0,0,61,36c-3.11-5.21-3.18-5.3-4-5.29l-7.8.14h0A2.21,2.21,0,0,1,47.53,30a2.34,2.34,0,0,1-.11-1.72,7.16,7.16,0,0,0-1.84-8.43,2.43,2.43,0,0,0-3.28,0l-.16.13a2.47,2.47,0,0,0-.81,1.82v3.61a7.23,7.23,0,0,1-4,6.08l0,0c-.52-.57-.84-.92-1.42-.92H16.71l.15-.5A26.34,26.34,0,1,1,19.13,50.7L35.41,51a2.35,2.35,0,0,0,1.9-.85.19.19,0,0,1,.19-.05l1.4.36a38.36,38.36,0,0,0,6.22,1.29c.62,0,1.27.08,1.91.08A36.25,36.25,0,0,0,51,51.6c.5-.06.93-.1,1.3-.12a5,5,0,0,0,3.92-2.37Z"/><polygon class="cls-1" points="77.9 13.47 84.81 13.47 84.81 31.03 88.67 31.03 88.67 13.47 95.58 13.47 95.58 10.19 77.9 10.19 77.9 13.47"/><path class="cls-1" d="M109.42,15.13v8a5.87,5.87,0,0,1-.54,2.65,3.63,3.63,0,0,1-1.51,1.61,4.82,4.82,0,0,1-2.3.53,3.51,3.51,0,0,1-2.73-1.06,4.47,4.47,0,0,1-1-3.16V15.13H97.6v9.08a8.07,8.07,0,0,0,.88,3.95,5.55,5.55,0,0,0,2.43,2.32,8.08,8.08,0,0,0,3.57.76,7,7,0,0,0,3.39-.84A5.62,5.62,0,0,0,109.6,29V31h3.54V15.13Z"/><path class="cls-1" d="M85.31,38.93a13,13,0,0,0-3.66.5,9.24,9.24,0,0,0-3.07,1.49L80,43.63a6.78,6.78,0,0,1,2.2-1.16,8.26,8.26,0,0,1,2.59-.42,4.33,4.33,0,0,1,3,.91,3.23,3.23,0,0,1,1,2.54v.24H84.71a9.89,9.89,0,0,0-3.87.63,4.32,4.32,0,0,0-2.1,1.69,4.69,4.69,0,0,0-.64,2.41,4.36,4.36,0,0,0,.73,2.46,4.93,4.93,0,0,0,2.07,1.7,7.6,7.6,0,0,0,3.13.61,7,7,0,0,0,3.51-.78A4.31,4.31,0,0,0,89,53.08v2h3.51V45.71a6.51,6.51,0,0,0-1.88-5.12A7.79,7.79,0,0,0,85.31,38.93Zm2,13a4.84,4.84,0,0,1-2.46.63,3.65,3.65,0,0,1-2.23-.6,1.87,1.87,0,0,1-.81-1.58,2,2,0,0,1,.67-1.53A3.89,3.89,0,0,1,85,48.21h3.87v1.85A3.69,3.69,0,0,1,87.26,51.9Z"/><path class="cls-1" d="M110.25,39.94a8.3,8.3,0,0,0-4.14-1,7.43,7.43,0,0,0-3.6.87,5.86,5.86,0,0,0-1.64,1.38v-2H97.33V60.8H101V53.08a5.76,5.76,0,0,0,1.55,1.28,7.2,7.2,0,0,0,3.54.88,8.3,8.3,0,0,0,4.14-1,7.39,7.39,0,0,0,2.87-2.84,9.23,9.23,0,0,0,0-8.59A7.35,7.35,0,0,0,110.25,39.94Zm-.48,9.76a4.59,4.59,0,0,1-1.68,1.76,5,5,0,0,1-4.81,0,4.54,4.54,0,0,1-1.69-1.76,5.78,5.78,0,0,1,0-5.25,4.4,4.4,0,0,1,1.69-1.73,5,5,0,0,1,4.81,0,4.44,4.44,0,0,1,1.68,1.73,5.78,5.78,0,0,1,0,5.25Z"/><path class="cls-1" d="M129.25,40a9,9,0,0,0-4.39-1,8.82,8.82,0,0,0-4.34,1,7.79,7.79,0,0,0-4.11,7.1,8.07,8.07,0,0,0,1.1,4.2,7.87,7.87,0,0,0,3,2.9,8.87,8.87,0,0,0,4.33,1.06,9,9,0,0,0,4.38-1.06,7.85,7.85,0,0,0,3-2.89,8.78,8.78,0,0,0,0-8.44A7.91,7.91,0,0,0,129.25,40ZM129,49.71a4.2,4.2,0,0,1-1.68,1.76,4.8,4.8,0,0,1-2.44.61,4.71,4.71,0,0,1-2.38-.61,4.44,4.44,0,0,1-1.7-1.76,5.46,5.46,0,0,1-.62-2.63,5.35,5.35,0,0,1,.62-2.63,4.49,4.49,0,0,1,1.7-1.73,5.07,5.07,0,0,1,4.82,0A4.24,4.24,0,0,1,129,44.45a5.35,5.35,0,0,1,.61,2.63A5.46,5.46,0,0,1,129,49.71Z"/><path class="cls-1" d="M140.49,41.45V39.13H137V55h3.69V47.35a5,5,0,0,1,1.25-3.72,4.61,4.61,0,0,1,3.39-1.22h.39l.41,0V38.93a7.82,7.82,0,0,0-3.78.84A5,5,0,0,0,140.49,41.45Z"/><path class="cls-1" d="M156.32,52.17a2.2,2.2,0,0,1-1.67-.63,2.45,2.45,0,0,1-.59-1.75V42.23h4.29v-3h-4.29V35.62h-3.69v3.63h-2.62v3h2.62v7.68a5.19,5.19,0,0,0,1.43,4,5.66,5.66,0,0,0,4,1.36,7.1,7.1,0,0,0,1.94-.27,4.75,4.75,0,0,0,1.64-.81l-1.07-2.65A3.12,3.12,0,0,1,156.32,52.17Z"/><path class="cls-1" d="M175.85,42.82A7.51,7.51,0,0,0,173,40a8.3,8.3,0,0,0-4.14-1,8.47,8.47,0,0,0-4.24,1,7.79,7.79,0,0,0-2.92,2.89,8.3,8.3,0,0,0-1.05,4.21,8.12,8.12,0,0,0,1.08,4.21,7.78,7.78,0,0,0,3.07,2.89,10.67,10.67,0,0,0,8.33.4,7.27,7.27,0,0,0,2.73-1.9l-2-2.33a5.45,5.45,0,0,1-1.9,1.31,6.2,6.2,0,0,1-2.41.45,5.92,5.92,0,0,1-2.77-.61,4.33,4.33,0,0,1-1.83-1.71,4.59,4.59,0,0,1-.54-1.52h12.46c0-.16,0-.34,0-.55s0-.38,0-.52A8.81,8.81,0,0,0,175.85,42.82Zm-11,1.37a4,4,0,0,1,1.63-1.65,4.83,4.83,0,0,1,2.39-.58,4.66,4.66,0,0,1,2.38.58,4.14,4.14,0,0,1,1.6,1.64,4.38,4.38,0,0,1,.5,1.62h-9A5.31,5.31,0,0,1,164.83,44.19Z"/></svg>