<svg id="Capa_1" data-name="Capa 1" xmlns="http://www.w3.org/2000/svg" viewBox="0 0 200 70"><defs><style>.cls-1{fill:#212750;}</style></defs><title>pictogramas para cesar lopez</title><path class="cls-1" d="M90.9,43.6h11.76v3.27H87V26h15.21v3.27H90.9Zm-.3-8.9H101v3.18H90.6Z"/><path class="cls-1" d="M113.16,47.08a8.33,8.33,0,0,1-4.1-1,7.39,7.39,0,0,1-2.86-2.85,9.37,9.37,0,0,1,0-8.58,7.28,7.28,0,0,1,2.86-2.86,8.33,8.33,0,0,1,4.1-1,7.28,7.28,0,0,1,3.65.88,6,6,0,0,1,2.46,2.67,10.47,10.47,0,0,1,.89,4.6,10.16,10.16,0,0,1-.92,4.59,6.27,6.27,0,0,1-2.49,2.69A7.15,7.15,0,0,1,113.16,47.08Zm.45-3.16A4.75,4.75,0,0,0,116,43.3a4.5,4.5,0,0,0,1.7-1.76,5.87,5.87,0,0,0,0-5.25,4.42,4.42,0,0,0-1.7-1.73,4.85,4.85,0,0,0-2.41-.61,4.79,4.79,0,0,0-2.38.61,4.49,4.49,0,0,0-1.7,1.73,5.87,5.87,0,0,0,0,5.25,4.57,4.57,0,0,0,1.7,1.76A4.69,4.69,0,0,0,113.61,43.92Zm4.67,8.72V43.18l.3-4.23-.12-4.22V31H122V52.64Z"/><path class="cls-1" d="M133.61,47.08a8,8,0,0,1-3.57-.76A5.6,5.6,0,0,1,127.61,44a8,8,0,0,1-.87-4V31h3.75v8.6a4.49,4.49,0,0,0,1,3.17,3.56,3.56,0,0,0,2.74,1,4.69,4.69,0,0,0,2.29-.53A3.65,3.65,0,0,0,138,41.66a6,6,0,0,0,.53-2.65V31h3.72V46.87h-3.54V42.55l.63,1.34A5.55,5.55,0,0,1,137,46.24,7,7,0,0,1,133.61,47.08Z"/><path class="cls-1" d="M149,28.36a2.31,2.31,0,0,1-1.71-.66,2.14,2.14,0,0,1-.67-1.61,2.06,2.06,0,0,1,.67-1.54,2.31,2.31,0,0,1,1.71-.66,2.48,2.48,0,0,1,1.71.61,2,2,0,0,1,.67,1.56,2.27,2.27,0,0,1-.65,1.63A2.35,2.35,0,0,1,149,28.36Zm-1.85,18.51V31h3.69V46.87Z"/><path class="cls-1" d="M155.79,52.64V31h3.54v3.75L159.18,39l.3,4.23v9.46Zm8.78-5.56A7.14,7.14,0,0,1,161,46.2a6.23,6.23,0,0,1-2.5-2.69,10.16,10.16,0,0,1-.92-4.59,10.48,10.48,0,0,1,.88-4.6A5.81,5.81,0,0,1,161,31.65a7.39,7.39,0,0,1,3.61-.88,8.39,8.39,0,0,1,4.13,1,7.37,7.37,0,0,1,2.87,2.86,8.41,8.41,0,0,1,1.06,4.28,8.39,8.39,0,0,1-1.06,4.3,7.48,7.48,0,0,1-2.87,2.85A8.39,8.39,0,0,1,164.57,47.08Zm-.45-3.16a4.71,4.71,0,0,0,2.42-.62,4.55,4.55,0,0,0,1.69-1.76,5.87,5.87,0,0,0,0-5.25,4.46,4.46,0,0,0-1.69-1.73,5,5,0,0,0-4.8,0,4.42,4.42,0,0,0-1.7,1.73,5.87,5.87,0,0,0,0,5.25,4.5,4.5,0,0,0,1.7,1.76A4.69,4.69,0,0,0,164.12,43.92Z"/><path class="cls-1" d="M183.32,47.08A8.76,8.76,0,0,1,179,46a7.9,7.9,0,0,1-3-2.9,8.09,8.09,0,0,1,3-11.3,8.86,8.86,0,0,1,4.35-1.05,9,9,0,0,1,4.39,1.05,7.84,7.84,0,0,1,3,2.88,8.69,8.69,0,0,1,0,8.43,7.71,7.71,0,0,1-3,2.89A8.92,8.92,0,0,1,183.32,47.08Zm0-3.16a4.83,4.83,0,0,0,2.44-.61,4.3,4.3,0,0,0,1.68-1.75,5.62,5.62,0,0,0,.61-2.64,5.46,5.46,0,0,0-.61-2.63,4.37,4.37,0,0,0-1.68-1.73,4.88,4.88,0,0,0-2.41-.61,4.82,4.82,0,0,0-2.41.61,4.42,4.42,0,0,0-1.7,1.73,5.25,5.25,0,0,0-.63,2.63,5.4,5.4,0,0,0,.63,2.64,4.34,4.34,0,0,0,1.7,1.75A4.66,4.66,0,0,0,183.32,43.92Z"/><path class="cls-1" d="M56,28.54a5.35,5.35,0,0,0-1.28,4.2l.71,5.41a5.35,5.35,0,0,0,5.28,4.64H63.6a5.35,5.35,0,0,0,5.28-4.64l.71-5.41a5.32,5.32,0,0,0-5.28-6H60A5.33,5.33,0,0,0,56,28.54ZM66.42,30.2a2.82,2.82,0,0,1,.68,2.22l-.71,5.41a2.82,2.82,0,0,1-2.79,2.45H60.74A2.83,2.83,0,0,1,58,37.83l-.71-5.41A2.82,2.82,0,0,1,60,29.24h4.28A2.79,2.79,0,0,1,66.42,30.2Z"/><path class="cls-1" d="M28.34,26.73H24.06a5.31,5.31,0,0,0-5.27,6l.7,5.41a5.35,5.35,0,0,0,5.28,4.64h2.86a5.35,5.35,0,0,0,5.28-4.64l.71-5.41a5.32,5.32,0,0,0-5.28-6Zm2.79,5.69-.71,5.41a2.82,2.82,0,0,1-2.79,2.45H24.77A2.84,2.84,0,0,1,22,37.83l-.7-5.41a2.81,2.81,0,0,1,2.78-3.18h4.28a2.82,2.82,0,0,1,2.79,3.18Z"/><path class="cls-1" d="M46.32,23.31H42.05a5.34,5.34,0,0,0-5.28,6l.71,5.41a5.33,5.33,0,0,0,5.28,4.63h2.86a5.33,5.33,0,0,0,5.27-4.63l.71-5.41a5.34,5.34,0,0,0-5.28-6ZM49.11,29l-.71,5.41a2.81,2.81,0,0,1-2.78,2.45H42.76A2.82,2.82,0,0,1,40,34.41L39.26,29a2.81,2.81,0,0,1,2.79-3.18h4.27A2.81,2.81,0,0,1,49.11,29Z"/><path class="cls-1" d="M65.44,17.36A29.27,29.27,0,0,0,16.5,45.63c.15.58.33,1.15.51,1.71a29.09,29.09,0,0,0,7.06,11.38,29.59,29.59,0,0,0,4.28,3.54c.48.32,1,.63,1.42.91l.55.33L35.1,47.58A5.17,5.17,0,0,1,36,45.91a6,6,0,0,1,.53-.6,5.35,5.35,0,0,1,3.74-1.51h8.4A5.42,5.42,0,0,1,52.05,45a5.74,5.74,0,0,1,.61.6,5.27,5.27,0,0,1,1.07,1.92l4.31,14A27,27,0,0,1,44.76,65h-.5v2.25h.5a29.15,29.15,0,0,0,14.51-3.84c.47-.27.95-.56,1.43-.88a30.06,30.06,0,0,0,4.74-3.84,29.16,29.16,0,0,0,6.37-9.53c.27-.65.52-1.33.74-2a29.34,29.34,0,0,0-7.11-29.82Zm5.43,27.53a7.76,7.76,0,0,0-5.05-1.83h-8.4l-.47,0,1.1,2.49h7.77a5.39,5.39,0,0,1,4.19,2A27.34,27.34,0,0,1,60.3,60.09L56.13,46.81a7.31,7.31,0,0,0-.4-1,9.9,9.9,0,0,0-1.49-2.19h0l-.12-.11a7.82,7.82,0,0,0-5.48-2.22h-8.4a7.9,7.9,0,0,0-5.27,2,10.13,10.13,0,0,0-2.25,3.53l-4,12.92a27.25,27.25,0,0,1-9.66-13.35A5.33,5.33,0,0,1,22,45.57h8.4l.46,0c.32-.73.72-1.65,1.05-2.38a7.66,7.66,0,0,0-1.51-.15H22a8,8,0,0,0-3.57.85A27,27,0,1,1,71.75,38,27.27,27.27,0,0,1,70.87,44.89Z"/></svg>