<svg id="Capa_1" data-name="Capa 1" xmlns="http://www.w3.org/2000/svg" viewBox="0 0 200 70"><defs><style>.cls-1{fill:#212750;}</style></defs><title>pictogramas para cesar lopez</title><path class="cls-1" d="M65.67,14.77A29,29,0,1,0,24.6,55.84,29,29,0,1,0,65.67,14.77Zm-1,24.31V52.82H53V38.65a1,1,0,0,0-1-1H38.72a1,1,0,0,0-1,1V52.82H25.27V33.11a1,1,0,0,0-1.11-1H23.9L45,13.75,66,32l2.49,2a1,1,0,0,0,.87.19.94.94,0,0,0,.65-.56,1,1,0,0,0-.28-1.19L45.66,11.57a1,1,0,0,0-1.37,0L20.23,32.5A1,1,0,0,0,20,33.69a1,1,0,0,0,1,.65l2.2-.12v16.4a26.79,26.79,0,1,1,43.6.45v-12Zm-26,15.83a1,1,0,0,0,1.05-1V39.7H51V53.87a1,1,0,0,0,1,1H63.36a26.72,26.72,0,0,1-36.45,0Z"/><path class="cls-1" d="M84.41,44.31V23.48h3.87V44.31Z"/><path class="cls-1" d="M102.57,28.21A7.5,7.5,0,0,1,106,29a5.59,5.59,0,0,1,2.36,2.29,8.06,8.06,0,0,1,.87,4v9.11h-3.72V35.68a4.45,4.45,0,0,0-1-3.16,3.67,3.67,0,0,0-2.8-1,4.87,4.87,0,0,0-2.32.54,3.74,3.74,0,0,0-1.56,1.59,5.67,5.67,0,0,0-.55,2.66v8H93.58V28.42h3.54v4.31l-.63-1.34A5.62,5.62,0,0,1,98.89,29,7.89,7.89,0,0,1,102.57,28.21Z"/><path class="cls-1" d="M115.81,25.8a2.35,2.35,0,0,1-1.71-.66,2.13,2.13,0,0,1-.67-1.6A2.07,2.07,0,0,1,114.1,22a2.35,2.35,0,0,1,1.71-.66,2.45,2.45,0,0,1,1.71.61,2,2,0,0,1,.67,1.57,2.27,2.27,0,0,1-.65,1.62A2.34,2.34,0,0,1,115.81,25.8ZM114,44.31V28.42h3.69V44.31Z"/><path class="cls-1" d="M129.83,44.52a9.12,9.12,0,0,1-4.45-1.06,7.72,7.72,0,0,1-3-2.89,8.06,8.06,0,0,1,3-11.31,9.23,9.23,0,0,1,4.45-1.05,8.59,8.59,0,0,1,4.08.95,6.19,6.19,0,0,1,2.68,2.77l-2.83,1.67A4.82,4.82,0,0,0,132,31.94a4.74,4.74,0,0,0-2.22-.55,5.08,5.08,0,0,0-2.47.61,4.43,4.43,0,0,0-1.73,1.73,5.35,5.35,0,0,0-.62,2.63A5.43,5.43,0,0,0,125.6,39a4.26,4.26,0,0,0,1.73,1.74,5,5,0,0,0,2.47.61,4.53,4.53,0,0,0,4-2.23l2.83,1.67a6.25,6.25,0,0,1-2.68,2.75A8.37,8.37,0,0,1,129.83,44.52Z"/><path class="cls-1" d="M141.56,25.8a2.35,2.35,0,0,1-1.72-.66,2.16,2.16,0,0,1-.66-1.6,2.1,2.1,0,0,1,.66-1.55,2.35,2.35,0,0,1,1.72-.66,2.48,2.48,0,0,1,1.71.61,2.05,2.05,0,0,1,.67,1.57,2.23,2.23,0,0,1-.66,1.62A2.31,2.31,0,0,1,141.56,25.8Zm-1.85,18.51V28.42h3.69V44.31Z"/><path class="cls-1" d="M155.43,44.52a8.8,8.8,0,0,1-4.34-1.06,7.94,7.94,0,0,1-3-2.9,8.09,8.09,0,0,1,3-11.3,8.86,8.86,0,0,1,4.35-1.05,9,9,0,0,1,4.39,1.05,7.84,7.84,0,0,1,3,2.88,8.69,8.69,0,0,1,0,8.43,7.64,7.64,0,0,1-3,2.89A8.92,8.92,0,0,1,155.43,44.52Zm0-3.16a4.83,4.83,0,0,0,2.44-.61A4.3,4.3,0,0,0,159.55,39a5.62,5.62,0,0,0,.61-2.64,5.46,5.46,0,0,0-.61-2.63A4.44,4.44,0,0,0,157.87,32,5.09,5.09,0,0,0,153,32a4.46,4.46,0,0,0-1.69,1.73,5.25,5.25,0,0,0-.63,2.63,5.4,5.4,0,0,0,.63,2.64A4.32,4.32,0,0,0,153,40.75,4.72,4.72,0,0,0,155.43,41.36Z"/></svg>