<svg id="Capa_1" data-name="Capa 1" xmlns="http://www.w3.org/2000/svg" viewBox="0 0 200 70"><defs><style>.cls-1{fill:#212750;}</style></defs><title>pictogramas para cesar lopez</title><rect class="cls-1" x="56.84" y="31.98" width="17.63" height="2.25" transform="translate(-4.14 9.98) rotate(-8.42)"/><path class="cls-1" d="M54,41.81l8.26,6.13A26.67,26.67,0,0,1,50.66,60l-.26.13v2.54l.71-.35a29,29,0,0,0,13-13l4,3,1.34-1.81L55.37,40Z"/><path class="cls-1" d="M52.39,53.42a1.23,1.23,0,0,0,.31-1.2l-2.34-8.34a7.86,7.86,0,0,0-4.19-14.94L43.31,18.73a1.24,1.24,0,0,0-2.08-.54L31.05,28.62,19.87,31.75a4.41,4.41,0,0,0-3.06,5.37A4.91,4.91,0,0,0,13.93,43l1.37,4.89A4.9,4.9,0,0,0,21,51.33a4.43,4.43,0,0,0,3.28,2.08l-.47,5.07A26.35,26.35,0,1,1,58.82,19.87l-6.71,9.05,1.81,1.34L64.43,16.1l-1.81-1.34L60.21,18c-.47-.56-1-1.1-1.5-1.62A28.62,28.62,0,1,0,23.53,61l-.37,4a1.27,1.27,0,0,0,.44,1.07,1.21,1.21,0,0,0,1.13.24l5.08-1.42a1.25,1.25,0,0,0,.9-1.08l1.13-12.19,5.24-1.47L51.2,53.76A1.23,1.23,0,0,0,52.39,53.42ZM26.85,52.18a1.27,1.27,0,0,0-.45-1.07,1.25,1.25,0,0,0-.79-.28,1.37,1.37,0,0,0-.34,0h0a1.92,1.92,0,0,1-2.37-1.32v0a1.28,1.28,0,0,0-.58-.75,1.26,1.26,0,0,0-1-.11l-.68.19a2.41,2.41,0,0,1-3-1.66L16.32,42.3a2.43,2.43,0,0,1,1.67-3l.68-.19a1.24,1.24,0,0,0,.86-1.53l-.31-1.11a1.92,1.92,0,0,1,1.32-2.37L32,30.92a1.2,1.2,0,0,0,.55-.33l8.91-9.12,2.59,9.24a1.26,1.26,0,0,0,.59.75,1.23,1.23,0,0,0,.94.11,5.37,5.37,0,1,1,2.9,10.35,1.26,1.26,0,0,0-.75.59,1.23,1.23,0,0,0-.11.94l2.07,7.37L37.37,47.66a1.16,1.16,0,0,0-.64,0l-6.38,1.79a1.24,1.24,0,0,0-.9,1.08L28.32,62.72l-2.52.71Z"/><path class="cls-1" d="M80.48,44.72V25.59h2.93l12,14.76H94V25.59h3.5V44.72H94.53L82.56,30H84V44.72Z"/><path class="cls-1" d="M108.85,44.91a8.05,8.05,0,0,1-4-1,7.18,7.18,0,0,1-2.78-2.66,7.9,7.9,0,0,1,0-7.73,7.29,7.29,0,0,1,2.76-2.64,8.07,8.07,0,0,1,4-1,8.17,8.17,0,0,1,4,1,7,7,0,0,1,2.76,2.64,8,8,0,0,1,0,7.74,7.07,7.07,0,0,1-2.77,2.65A8.22,8.22,0,0,1,108.85,44.91Zm0-2.89a4.46,4.46,0,0,0,2.24-.56,4,4,0,0,0,1.55-1.62,5.07,5.07,0,0,0,.56-2.41,5,5,0,0,0-.56-2.42,4,4,0,0,0-1.55-1.59,4.64,4.64,0,0,0-4.42,0A4,4,0,0,0,105.11,35a4.9,4.9,0,0,0-.58,2.42,5,5,0,0,0,.58,2.41,4,4,0,0,0,1.56,1.62A4.34,4.34,0,0,0,108.85,42Z"/><path class="cls-1" d="M118,33V30.24h9.73V33Zm7.43,11.94a5.17,5.17,0,0,1-3.71-1.24A4.77,4.77,0,0,1,120.38,40V26.9h3.39v13a2.28,2.28,0,0,0,.55,1.62,2,2,0,0,0,1.53.57,2.85,2.85,0,0,0,1.86-.6l1,2.43a4.39,4.39,0,0,1-1.5.74A6.7,6.7,0,0,1,125.41,44.91Z"/><path class="cls-1" d="M133.23,27.72a2.15,2.15,0,0,1-1.57-.6,2,2,0,0,1-.62-1.47,1.92,1.92,0,0,1,.62-1.42,2.16,2.16,0,0,1,1.57-.61,2.21,2.21,0,0,1,1.57.57,1.85,1.85,0,0,1,.62,1.43,2.07,2.07,0,0,1-.61,1.49A2.09,2.09,0,0,1,133.23,27.72Zm-1.7,17V30.13h3.39V44.72Z"/><path class="cls-1" d="M146.1,44.91a8.44,8.44,0,0,1-4.09-1,7.22,7.22,0,0,1-2.8-2.65,7.92,7.92,0,0,1,0-7.74,7.19,7.19,0,0,1,2.8-2.64,8.44,8.44,0,0,1,4.09-1,7.85,7.85,0,0,1,3.74.87,5.6,5.6,0,0,1,2.46,2.54l-2.59,1.53a4.42,4.42,0,0,0-1.6-1.51,4.23,4.23,0,0,0-2-.51,4.62,4.62,0,0,0-2.26.56A4,4,0,0,0,142.22,35a4.89,4.89,0,0,0-.57,2.42,5,5,0,0,0,.57,2.43,4,4,0,0,0,1.59,1.6,4.62,4.62,0,0,0,2.26.56,4.23,4.23,0,0,0,2-.51,4.35,4.35,0,0,0,1.6-1.54l2.59,1.53A5.72,5.72,0,0,1,149.84,44,7.74,7.74,0,0,1,146.1,44.91Z"/><path class="cls-1" d="M156.87,27.72a2.15,2.15,0,0,1-1.57-.6,2,2,0,0,1-.62-1.47,1.92,1.92,0,0,1,.62-1.42,2.16,2.16,0,0,1,1.57-.61,2.21,2.21,0,0,1,1.57.57,1.85,1.85,0,0,1,.62,1.43,2.07,2.07,0,0,1-.61,1.49A2.11,2.11,0,0,1,156.87,27.72Zm-1.7,17V30.13h3.39V44.72Z"/><path class="cls-1" d="M167.44,44.91a6.73,6.73,0,0,1-2.86-.56,4.39,4.39,0,0,1-1.9-1.55,4,4,0,0,1-.67-2.26,4.22,4.22,0,0,1,.58-2.21,4,4,0,0,1,1.93-1.56,9.21,9.21,0,0,1,3.55-.57h4.24v2.26h-4A3.59,3.59,0,0,0,166,39a1.84,1.84,0,0,0-.61,1.41,1.7,1.7,0,0,0,.74,1.45,3.33,3.33,0,0,0,2,.55,4.39,4.39,0,0,0,2.25-.58,3.38,3.38,0,0,0,1.46-1.69l.55,2.05a3.77,3.77,0,0,1-1.75,2A6.44,6.44,0,0,1,167.44,44.91Zm4.6-.19v-3l-.17-.6V36a3,3,0,0,0-.91-2.34,4.05,4.05,0,0,0-2.78-.83,7.84,7.84,0,0,0-2.38.38,6.38,6.38,0,0,0-2,1.07l-1.34-2.49a8.61,8.61,0,0,1,2.82-1.37,12,12,0,0,1,3.36-.46,7.18,7.18,0,0,1,4.92,1.53,6,6,0,0,1,1.72,4.7v8.55Z"/><path class="cls-1" d="M184.17,44.91a13.14,13.14,0,0,1-3.53-.47A9.28,9.28,0,0,1,178,43.27l1.31-2.59a8.76,8.76,0,0,0,2.35,1,9.65,9.65,0,0,0,2.76.4,4.81,4.81,0,0,0,2.31-.42,1.31,1.31,0,0,0,.72-1.17,1,1,0,0,0-.49-.91,3.89,3.89,0,0,0-1.28-.48q-.79-.16-1.77-.3a19.45,19.45,0,0,1-1.94-.37,6.64,6.64,0,0,1-1.76-.68,3.57,3.57,0,0,1-1.28-1.22,3.72,3.72,0,0,1-.5-2,3.79,3.79,0,0,1,.8-2.39,5.13,5.13,0,0,1,2.22-1.6,9.22,9.22,0,0,1,3.41-.57,13.32,13.32,0,0,1,3,.34,8.86,8.86,0,0,1,2.53.94L189,33.82A6.81,6.81,0,0,0,186.9,33a9.53,9.53,0,0,0-2.1-.24,4.65,4.65,0,0,0-2.3.45,1.33,1.33,0,0,0-.76,1.17,1.1,1.1,0,0,0,.49,1,3.68,3.68,0,0,0,1.28.5q.8.18,1.77.33c.64.1,1.29.23,1.92.39a7.6,7.6,0,0,1,1.77.65,3.36,3.36,0,0,1,1.29,1.19,3.62,3.62,0,0,1,.5,2,3.71,3.71,0,0,1-.81,2.4,5.24,5.24,0,0,1-2.27,1.55A9.64,9.64,0,0,1,184.17,44.91Z"/></svg>