<svg id="Capa_1" data-name="Capa 1" xmlns="http://www.w3.org/2000/svg" viewBox="0 0 200 70"><defs><style>.cls-1{fill:#212750;}</style></defs><title>pictogramas para cesar lopez</title><path class="cls-1" d="M47,14.78a6.89,6.89,0,0,0-5.2-2.36H35.76a6.93,6.93,0,0,0-6.86,7.82l1,7.7a6.93,6.93,0,0,0,6.86,6h4.08a6.93,6.93,0,0,0,6.86-6l1-7.7A6.89,6.89,0,0,0,47,14.78ZM46.47,20l-1,7.7a4.67,4.67,0,0,1-4.62,4.06H36.76a4.67,4.67,0,0,1-4.62-4.06l-1-7.7a4.67,4.67,0,0,1,4.63-5.27h6.08A4.67,4.67,0,0,1,46.47,20Z"/><path class="cls-1" d="M59.1,16.38A28.7,28.7,0,0,0,17.25,55.63c.32.37.66.74,1,1.09l.58.6L22.94,44a8.26,8.26,0,0,1,7.93-5.85H46.62A8.25,8.25,0,0,1,54.53,44L58,54.89a26.5,26.5,0,0,1-19.16,8.23h-.51v1.77l0,.5h.5A28.54,28.54,0,0,0,59.1,57l.2-.21c.35-.35.68-.72,1-1.08a28.71,28.71,0,0,0-1.21-39.3Zm6.15,20.29a26.41,26.41,0,0,1-5.57,16.21l-3-9.57a10.49,10.49,0,0,0-10.06-7.4H30.87a10.49,10.49,0,0,0-10.08,7.45l-2.92,9.46A26.44,26.44,0,1,1,65.25,36.67Z"/><path class="cls-1" d="M77.06,31.1V14.71h6.75a9.17,9.17,0,0,1,3.73.69,5.34,5.34,0,0,1,2.4,2,5.71,5.71,0,0,1,.84,3.14,5.57,5.57,0,0,1-.84,3.1,5.51,5.51,0,0,1-2.4,2,9,9,0,0,1-3.73.71h-5L80.11,25V31.1Zm3-5.81L78.77,23.8h4.89a4.63,4.63,0,0,0,3-.86,3,3,0,0,0,1-2.4,3,3,0,0,0-1-2.4,4.63,4.63,0,0,0-3-.86H78.77l1.34-1.49Z"/><path class="cls-1" d="M99.38,31.27a7.67,7.67,0,0,1-3.64-.83,6.09,6.09,0,0,1-2.41-2.28,6.35,6.35,0,0,1-.86-3.31,6.53,6.53,0,0,1,.83-3.31,6.14,6.14,0,0,1,2.3-2.28,6.66,6.66,0,0,1,3.33-.83,6.49,6.49,0,0,1,3.26.81,5.89,5.89,0,0,1,2.25,2.26,7,7,0,0,1,.82,3.44c0,.11,0,.25,0,.41s0,.31,0,.44H94.79V23.84h8.88l-1.18.61a3.55,3.55,0,0,0-.43-1.88,3.17,3.17,0,0,0-1.25-1.29,3.66,3.66,0,0,0-1.88-.46,3.77,3.77,0,0,0-1.88.46,3.14,3.14,0,0,0-1.28,1.3,4.17,4.17,0,0,0-.44,1.94V25a4,4,0,0,0,.5,2,3.48,3.48,0,0,0,1.44,1.35,4.73,4.73,0,0,0,2.18.48,5,5,0,0,0,1.9-.35,4.62,4.62,0,0,0,1.5-1l1.59,1.82a5.54,5.54,0,0,1-2.14,1.5A7.87,7.87,0,0,1,99.38,31.27Z"/><path class="cls-1" d="M108.09,31.1V18.6h2.79V22l-.33-1a3.89,3.89,0,0,1,1.76-1.93,6,6,0,0,1,3-.67v2.79l-.33,0h-.3a3.67,3.67,0,0,0-2.67,1,3.91,3.91,0,0,0-1,2.93v6Z"/><path class="cls-1" d="M116.59,21V18.69h8.34V21Zm2.06,10.07V17.92a4.36,4.36,0,0,1,1.16-3.18,4.48,4.48,0,0,1,3.32-1.18,6.87,6.87,0,0,1,1.46.16,3.18,3.18,0,0,1,1.16.52l-.82,2.18a2.61,2.61,0,0,0-.73-.35,2.54,2.54,0,0,0-.86-.14,1.77,1.77,0,0,0-1.38.5,2.08,2.08,0,0,0-.47,1.49v1.45l.07,1.29V31.1Zm9.82-14.56a1.86,1.86,0,0,1-1.35-.52,1.69,1.69,0,0,1-.53-1.26,1.65,1.65,0,0,1,.53-1.22,1.82,1.82,0,0,1,1.35-.52,1.91,1.91,0,0,1,1.34.48,1.6,1.6,0,0,1,.53,1.23,1.77,1.77,0,0,1-.51,1.28A1.84,1.84,0,0,1,128.47,16.54ZM127,31.1V18.6h2.9V31.1Z"/><path class="cls-1" d="M133.78,31.1V13.72h2.91V31.1Z"/><path class="cls-1" d="M152.28,31.27a6.59,6.59,0,0,1-3.24-.8,5.79,5.79,0,0,1-2.26-2.24,6.66,6.66,0,0,1-.82-3.38,6.7,6.7,0,0,1,.82-3.37A5.75,5.75,0,0,1,149,19.23a6.59,6.59,0,0,1,3.24-.8,5.65,5.65,0,0,1,2.81.69,4.87,4.87,0,0,1,2,2.11,7.85,7.85,0,0,1,.73,3.62,8.32,8.32,0,0,1-.7,3.61,4.78,4.78,0,0,1-1.94,2.12A5.75,5.75,0,0,1,152.28,31.27Zm.36-2.49a3.68,3.68,0,0,0,1.88-.48,3.56,3.56,0,0,0,1.34-1.38,4.23,4.23,0,0,0,.5-2.07,4.12,4.12,0,0,0-.5-2.07,3.57,3.57,0,0,0-1.34-1.36,3.94,3.94,0,0,0-3.77,0,3.55,3.55,0,0,0-1.33,1.36,4,4,0,0,0-.51,2.07,4.13,4.13,0,0,0,.51,2.07,3.54,3.54,0,0,0,1.33,1.38A3.69,3.69,0,0,0,152.64,28.78Zm3.81,2.32v-3l.07-3.32-.23-3.33V13.72h3V31.1Z"/><path class="cls-1" d="M169,31.27a7.67,7.67,0,0,1-3.64-.83,6,6,0,0,1-2.41-2.28,6.26,6.26,0,0,1-.86-3.31,6.53,6.53,0,0,1,.83-3.31,6.14,6.14,0,0,1,2.3-2.28,6.64,6.64,0,0,1,3.33-.83,6.49,6.49,0,0,1,3.26.81A5.89,5.89,0,0,1,174,21.5a7,7,0,0,1,.82,3.44c0,.11,0,.25,0,.41s0,.31,0,.44H164.37V23.84h8.88l-1.18.61a3.55,3.55,0,0,0-.43-1.88,3.17,3.17,0,0,0-1.25-1.29,3.66,3.66,0,0,0-1.88-.46,3.77,3.77,0,0,0-1.88.46,3.09,3.09,0,0,0-1.28,1.3,4.17,4.17,0,0,0-.44,1.94V25a4,4,0,0,0,.5,2,3.48,3.48,0,0,0,1.44,1.35,4.73,4.73,0,0,0,2.18.48,5,5,0,0,0,1.9-.35,4.62,4.62,0,0,0,1.5-1L174,29.25a5.5,5.5,0,0,1-2.15,1.5A7.78,7.78,0,0,1,169,31.27Z"/><path class="cls-1" d="M177.67,31.1V13.72h2.91V31.1Z"/><path class="cls-1" d="M82.52,54.69a7.27,7.27,0,0,1-3.5-.83,6.13,6.13,0,0,1-2.4-2.28,6.77,6.77,0,0,1,0-6.64A6.16,6.16,0,0,1,79,42.68a7.27,7.27,0,0,1,3.5-.83,6.73,6.73,0,0,1,3.21.75,4.82,4.82,0,0,1,2.1,2.18l-2.22,1.31a3.77,3.77,0,0,0-1.37-1.3,3.63,3.63,0,0,0-1.75-.43,4,4,0,0,0-1.94.48,3.42,3.42,0,0,0-1.36,1.36,4.12,4.12,0,0,0-.49,2.07,4.18,4.18,0,0,0,.49,2.08,3.39,3.39,0,0,0,1.36,1.37,4,4,0,0,0,1.94.48,3.63,3.63,0,0,0,1.75-.43,3.75,3.75,0,0,0,1.37-1.32l2.22,1.31a4.89,4.89,0,0,1-2.1,2.17A6.73,6.73,0,0,1,82.52,54.69Z"/><path class="cls-1" d="M94.16,54.69a5.87,5.87,0,0,1-2.46-.48,3.82,3.82,0,0,1-1.63-1.34,3.39,3.39,0,0,1-.57-1.93A3.6,3.6,0,0,1,90,49a3.45,3.45,0,0,1,1.65-1.33,7.84,7.84,0,0,1,3-.49h3.63v1.94H94.91a3.08,3.08,0,0,0-2,.48,1.56,1.56,0,0,0-.52,1.21A1.49,1.49,0,0,0,93,52.09a2.92,2.92,0,0,0,1.76.47,3.8,3.8,0,0,0,1.93-.5A2.84,2.84,0,0,0,98,50.61l.47,1.76a3.28,3.28,0,0,1-1.5,1.71A5.64,5.64,0,0,1,94.16,54.69Zm3.93-.17V52L98,51.45V47a2.56,2.56,0,0,0-.78-2,3.44,3.44,0,0,0-2.38-.72,6.5,6.5,0,0,0-2,.33,5.37,5.37,0,0,0-1.73.91l-1.15-2.13a7.62,7.62,0,0,1,2.41-1.17,10.54,10.54,0,0,1,2.88-.4,6.16,6.16,0,0,1,4.22,1.31,5.14,5.14,0,0,1,1.47,4v7.33Z"/><path class="cls-1" d="M111.7,41.85a5.88,5.88,0,0,1,2.68.59,4.39,4.39,0,0,1,1.85,1.8,6.27,6.27,0,0,1,.69,3.12v7.16H114V47.73a3.46,3.46,0,0,0-.77-2.48,2.86,2.86,0,0,0-2.2-.82,3.86,3.86,0,0,0-1.83.42A2.91,2.91,0,0,0,108,46.1a4.54,4.54,0,0,0-.43,2.1v6.32h-2.9V42h2.78v3.39l-.49-1a4.33,4.33,0,0,1,1.89-1.85A6.1,6.1,0,0,1,111.7,41.85Z"/><path class="cls-1" d="M126,54.69a6.59,6.59,0,0,1-3.24-.8,5.73,5.73,0,0,1-2.26-2.24,7.36,7.36,0,0,1,0-6.75,5.69,5.69,0,0,1,2.26-2.25,6.59,6.59,0,0,1,3.24-.8,5.68,5.68,0,0,1,2.81.69,4.93,4.93,0,0,1,2,2.11,8,8,0,0,1,.72,3.62,8.18,8.18,0,0,1-.7,3.61A4.76,4.76,0,0,1,128.83,54,5.78,5.78,0,0,1,126,54.69Zm.35-2.49a3.74,3.74,0,0,0,1.89-.48,3.54,3.54,0,0,0,1.33-1.38,4.13,4.13,0,0,0,.51-2.07,4,4,0,0,0-.51-2.07,3.55,3.55,0,0,0-1.33-1.36,3.74,3.74,0,0,0-1.89-.48,3.68,3.68,0,0,0-1.88.48,3.57,3.57,0,0,0-1.34,1.36,4.12,4.12,0,0,0-.5,2.07,4.23,4.23,0,0,0,.5,2.07,3.56,3.56,0,0,0,1.34,1.38A3.68,3.68,0,0,0,126.31,52.2Zm3.82,2.32v-3l.07-3.32L130,44.92V37.14h2.95V54.52Z"/><path class="cls-1" d="M138.23,40a1.86,1.86,0,0,1-1.34-.52,1.66,1.66,0,0,1-.53-1.26,1.62,1.62,0,0,1,.53-1.22,1.82,1.82,0,0,1,1.34-.52,1.92,1.92,0,0,1,1.35.48,1.6,1.6,0,0,1,.53,1.23,1.78,1.78,0,0,1-.52,1.28A1.82,1.82,0,0,1,138.23,40Zm-1.45,14.56V42h2.9v12.5Z"/><path class="cls-1" d="M148.82,54.69a6.63,6.63,0,0,1-3.25-.8,5.79,5.79,0,0,1-2.26-2.24,7.36,7.36,0,0,1,0-6.75,5.75,5.75,0,0,1,2.26-2.25,6.63,6.63,0,0,1,3.25-.8,5.71,5.71,0,0,1,2.81.69,4.93,4.93,0,0,1,2,2.11,8,8,0,0,1,.72,3.62,8.18,8.18,0,0,1-.7,3.61A4.76,4.76,0,0,1,151.69,54,5.78,5.78,0,0,1,148.82,54.69Zm.35-2.49a3.68,3.68,0,0,0,1.88-.48,3.56,3.56,0,0,0,1.34-1.38,4.12,4.12,0,0,0,.5-2.07,4,4,0,0,0-.5-2.07,3.57,3.57,0,0,0-1.34-1.36,3.68,3.68,0,0,0-1.88-.48,3.74,3.74,0,0,0-1.89.48A3.55,3.55,0,0,0,146,46.2a4,4,0,0,0-.5,2.07,4.12,4.12,0,0,0,.5,2.07,3.54,3.54,0,0,0,1.33,1.38A3.74,3.74,0,0,0,149.17,52.2ZM153,54.52v-3l.07-3.32-.24-3.33V37.14h3V54.52Z"/><path class="cls-1" d="M163.39,54.69a5.87,5.87,0,0,1-2.46-.48,3.76,3.76,0,0,1-1.63-1.34,3.4,3.4,0,0,1-.58-1.93,3.6,3.6,0,0,1,.51-1.9,3.36,3.36,0,0,1,1.65-1.33,7.78,7.78,0,0,1,3-.49h3.63v1.94h-3.42a3.05,3.05,0,0,0-2,.48,1.56,1.56,0,0,0-.52,1.21,1.49,1.49,0,0,0,.63,1.24,2.89,2.89,0,0,0,1.75.47,3.81,3.81,0,0,0,1.94-.5,2.88,2.88,0,0,0,1.25-1.45l.47,1.76a3.28,3.28,0,0,1-1.5,1.71A5.64,5.64,0,0,1,163.39,54.69Zm3.93-.17V52l-.14-.52V47a2.53,2.53,0,0,0-.79-2,3.39,3.39,0,0,0-2.37-.72,6.5,6.5,0,0,0-2,.33,5.37,5.37,0,0,0-1.73.91l-1.15-2.13a7.62,7.62,0,0,1,2.41-1.17,10.54,10.54,0,0,1,2.88-.4,6.18,6.18,0,0,1,4.22,1.31,5.14,5.14,0,0,1,1.47,4v7.33Z"/><path class="cls-1" d="M172.17,44.45V42.11h8.34v2.34Zm6.37,10.24a4.46,4.46,0,0,1-3.19-1.07,4.1,4.1,0,0,1-1.12-3.13V39.25h2.9V50.4a1.94,1.94,0,0,0,.47,1.38,1.71,1.71,0,0,0,1.31.49,2.49,2.49,0,0,0,1.6-.51l.84,2.08a3.72,3.72,0,0,1-1.29.64A5.63,5.63,0,0,1,178.54,54.69Z"/><path class="cls-1" d="M189,54.69a7,7,0,0,1-3.41-.83,6.21,6.21,0,0,1-2.37-2.29,6.37,6.37,0,0,1,2.36-8.89,7.52,7.52,0,0,1,6.87,0,6.21,6.21,0,0,1,2.37,2.26,6.91,6.91,0,0,1,0,6.64,6.15,6.15,0,0,1-2.38,2.28A7.09,7.09,0,0,1,189,54.69Zm0-2.49a3.8,3.8,0,0,0,1.92-.48,3.38,3.38,0,0,0,1.32-1.38,4.33,4.33,0,0,0,.48-2.07,4.22,4.22,0,0,0-.48-2.07,3.39,3.39,0,0,0-1.32-1.36,4,4,0,0,0-3.79,0,3.44,3.44,0,0,0-1.34,1.36,4.12,4.12,0,0,0-.49,2.07,4.22,4.22,0,0,0,.49,2.07,3.43,3.43,0,0,0,1.34,1.38A3.69,3.69,0,0,0,189,52.2Z"/></svg>